# xmcd
#
# Track frame offsets:
#	150
#	22295
#	46117
#	72247
#	93510
#	111037
#	130385
#	151115
#	169115
#	193980
#	214075
#	308532
#	311482
#	314677
#	317867
#	320410
#	325072
#	327920
#	330275
#
# Disc length: 4435 seconds
#
# Revision: 1
# Processed by: cddbd v1.5PL3 Copyright (c) Steve Scherf et al.
# Submitted via: audiograbber 1.80
#
DISCID=0d115113
DTITLE=Michael McKenna - Hard Choices
DYEAR=1900
DGENRE=
TTITLE0=The River Knows Your Name
TTITLE1=The Last Train Home
TTITLE2=Something About The Moon
TTITLE3=In The Arms of Love
TTITLE4=Tell Me I'm Dreaming
TTITLE5=Down In The Fire
TTITLE6=Obsession
TTITLE7=Sheffield Girls
TTITLE8=Hard Choices
TTITLE9=Bonus Track
TTITLE10=Interview1
TTITLE11=Interview2
TTITLE12=Interview3
TTITLE13=Interview4
TTITLE14=Interview5
TTITLE15=Interview6
TTITLE16=Interview7
TTITLE17=Interview8
TTITLE18=Interview9
EXTD=
EXTT0=
EXTT1=
EXTT2=
EXTT3=
EXTT4=
EXTT5=
EXTT6=
EXTT7=
EXTT8=
EXTT9=
EXTT10=
EXTT11=
EXTT12=
EXTT13=
EXTT14=
EXTT15=
EXTT16=
EXTT17=
EXTT18=
PLAYORDER=
